<svg xmlns="http://www.w3.org/2000/svg" width="40" height="40" fill="transparent"><g xmlns="http://www.w3.org/2000/svg" clip-path="url(#a)"><path fill="#AE4CFB" d="m8.81 30.53 1.39 1.39A13.7 13.7 0 0 0 20 36a13.73 13.73 0 0 0 9.47-4l1.37-1.37a13.79 13.79 0 0 0 .48-16.08c-.1-.15-.22-.29-.32-.45a53.076 53.076 0 0 0-5.9-6.86C23.94 6.08 21.4 3.65 20.19 4c-1.21.35-.67 4.09-2.3 8.54-1.57 4.34-2.89 4.77-4.36 4.46-3.31-1-.68-5.75-1.68-5.75-.74.04-1.85 1.2-1.85 1.2a13.78 13.78 0 0 0-1.19 18.08Z"/><path fill="#fff" d="m15.55 31.7.55.59a5.001 5.001 0 0 0 7.5 0l.53-.58a6.16 6.16 0 0 0-.47-7.62s-1.24-1.47-1.66-1.94c-.42-.47-1.75-1.78-1.75-1.78a.52.52 0 0 0-.76 0s-1.35 1.36-1.81 1.85c-.46.49-1.68 1.87-1.68 1.87a6.16 6.16 0 0 0-.45 7.61Z"/></g><defs xmlns="http://www.w3.org/2000/svg"><clipPath id="a"><path fill="#fff" d="M6 4h27.69v31.96H6z"/></clipPath></defs></svg>